<?xml version="1.0" encoding="UTF-8" standalone="no"?>
<!-- Created with Inkscape (http://www.inkscape.org/) -->

<svg
   width="44.185436mm"
   height="39.6875mm"
   viewBox="0 0 44.185436 39.6875"
   version="1.1"
   id="svg1"
   xml:space="preserve"
   xmlns="http://www.w3.org/2000/svg"
   xmlns:svg="http://www.w3.org/2000/svg"><defs
     id="defs1" /><g
     id="g6"
     style="display:inline"
     transform="translate(-80.16875,-60.854165)"><path
       style="display:inline;fill:#0e0e17;fill-opacity:0.88;stroke:none;stroke-width:0.530964;stroke-dasharray:none;stroke-opacity:0.88"
       id="path17"
       width="39.158379"
       height="39.158379"
       x="84.931229"
       y="61.118729"
       d="M 84.931229,61.118729 H 124.08961 V 88.792051 L 112.60455,100.27711 H 84.931229 Z"
       transform="matrix(0.99999885,0,0,1.0135114,0.26470259,-1.0903614)" /><g
       id="g18"
       style="display:inline;stroke:#5ef6ff;stroke-opacity:0.12"
       transform="translate(2.1306472e-5)"><path
         id="path9"
         style="display:inline;fill:none;fill-opacity:0.1;stroke:#5ef6ff;stroke-width:0.396875;stroke-linecap:square;stroke-dasharray:none;stroke-opacity:0.12"
         d="m 119.76882,62.040269 -0.13731,-0.137309 v -0.81208 m -0.79513,3e-6 v 0.613297 l -0.36866,0.638543 m 5.59328,12.718565 -1.64312,-1.643116 v -7.845123 l 1.59025,-1.800729 m 0.0494,12.578126 -2.42996,-2.429959 v -9.202424 l 0.81852,-0.900364 v -2.701093 m 1.60506,16.520075 -3.97873,-3.97873 v -5.186463 l -4.11323,-4.124616 v -3.238973 m 8.09289,17.822325 -4.96757,-4.967575 v -5.237918 l -4.35478,-4.378997 v -3.221433 m 9.32767,19.10385 -5.96272,-5.96272 v -5.329104 l -4.22623,-4.213305 v -3.595611 m 10.18476,20.389167 -7.21371,-7.213705 v -4.911329 l -6.54512,-6.542951 v -1.752865 m 13.76122,21.715855 -8.06636,-8.066359 v -5.035352 l -6.70333,-6.689826 v -1.901693 m 14.76624,22.982388 -8.92971,-8.929704 v -5.14534 l -6.76446,-6.767564 v -2.141457 m 15.69144,24.273953 -16.61507,-16.615066 v -7.631576 m 16.61673,25.540916 -17.5042,-17.504198 V 61.12745 m 17.517,26.862859 -18.421,-18.420996 V 61.12745 m 18.20325,27.937728 -19.1114,-19.111393 v -8.797396 m 18.4389,28.528906 -19.3429,-19.342904 v -6.655924 l -0.17363,-0.42168 M 122.54249,90.346754 102.93572,70.739979 V 66.47678 l -0.1819,-0.272852 M 121.88652,90.983407 99.664211,68.761093 V 61.154777 M 121.26364,91.653134 98.793279,69.182772 V 61.154899 M 120.61182,92.293922 97.912014,69.594117 V 61.140552 M 119.97652,92.951246 97.039007,70.01373 V 61.123287 M 119.34537,93.612704 96.166008,70.433342 V 61.106345 M 118.68941,94.249358 95.288872,70.84882 V 61.147445 M 118.0624,94.914951 94.411738,71.2643 V 61.119643 M 117.41883,95.564006 93.547005,71.69218 V 61.097026 M 116.79595,96.233733 92.67425,72.112037 V 61.10289 m 20.69719,32.616838 h -1.49242 l -6.76734,-6.767346 M 90.901704,61.18384 v 11.336403 l 0.783434,0.783434 m 11.822562,11.675535 -0.23386,-0.257247 h -2.44031 L 90.71413,74.602672 m 25.44835,22.264901 -2.36617,-2.366164 -3.18138,0.0019 -8.88835,-8.888342 -1.28985,1e-6 -10.983059,-10.983053 m 26.067549,22.908002 -2.12001,-2.120007 -4.44701,0.0022 -20.810441,-20.810412 -0.784681,8.01e-4 -1.852742,-1.85274 m 29.342624,25.416787 -1.83319,-1.833194 -4.43466,-0.0047 -20.805067,-20.80517 H 87.002072 L 85.488986,74.020396 M 114.17545,98.826152 112.616,97.266714 108.21868,97.265946 87.401952,76.449219 86.614819,76.44869 85.499495,75.326671 m 28.129345,24.130318 -1.2742,-1.274203 -4.5072,0.0016 L 86.956456,77.29348 h -0.89246 l -0.566307,-0.611849 m 27.478151,23.419059 -0.99511,-0.995109 -4.50066,0.0012 L 86.387319,78.014019 H 85.433101 M 107.32464,100.24101 85.527443,78.443833 M 106.03495,100.24101 85.512291,79.718374 M 104.74524,100.24101 85.491294,80.987068 M 103.45555,100.24101 85.507544,82.293011 M 102.16586,100.24101 85.501451,83.576611 M 100.87616,100.24101 85.486764,84.851618 M 99.58647,100.24101 85.495708,86.150254 M 98.296776,100.24101 85.508785,87.453025 M 97.007083,100.24101 85.498599,88.732531 M 95.717389,100.24101 85.523835,90.047461 m 8.90386,10.193549 -8.925274,-8.92527 m 7.635581,8.92527 -7.635026,-7.635023 m 6.345333,7.635023 -6.343159,-6.343157 m 5.053465,6.343157 -5.047499,-5.047497 m 3.757805,5.047497 -3.773158,-3.773156 m 2.483465,3.773156 -2.487038,-2.487037" /><g
         id="g17"
         style="stroke:#5ef6ff;stroke-opacity:0.12"><circle
           style="display:inline;fill:none;fill-opacity:0.1;stroke:#5ef6ff;stroke-width:0.502724;stroke-linecap:square;stroke-dasharray:none;stroke-opacity:0.12"
           id="circle9"
           cx="88.690407"
           cy="71.198914"
           r="0.80697155" /><circle
           style="display:inline;fill:none;fill-opacity:0.1;stroke:#5ef6ff;stroke-width:0.502724;stroke-linecap:square;stroke-dasharray:none;stroke-opacity:0.12"
           id="circle10"
           cx="88.690407"
           cy="68.486931"
           r="0.80697155" /><circle
           style="display:inline;fill:none;fill-opacity:0.1;stroke:#5ef6ff;stroke-width:0.502724;stroke-linecap:square;stroke-dasharray:none;stroke-opacity:0.12"
           id="circle11"
           cx="104.34926"
           cy="85.916527"
           r="0.80697155" /><circle
           style="display:inline;fill:none;fill-opacity:0.1;stroke:#5ef6ff;stroke-width:0.502724;stroke-linecap:square;stroke-dasharray:none;stroke-opacity:0.12"
           id="circle12"
           cx="102.07309"
           cy="65.136871"
           r="0.80697155" /><circle
           style="display:inline;fill:none;fill-opacity:0.1;stroke:#5ef6ff;stroke-width:0.502724;stroke-linecap:square;stroke-dasharray:none;stroke-opacity:0.12"
           id="circle13"
           cx="103.18393"
           cy="62.09668"
           r="0.80697155" /><circle
           style="display:inline;fill:none;fill-opacity:0.1;stroke:#5ef6ff;stroke-width:0.502724;stroke-linecap:square;stroke-dasharray:none;stroke-opacity:0.12"
           id="circle14"
           cx="112.23434"
           cy="62.225304"
           r="0.80697155" /><circle
           style="display:inline;fill:none;fill-opacity:0.1;stroke:#5ef6ff;stroke-width:0.502724;stroke-linecap:square;stroke-dasharray:none;stroke-opacity:0.12"
           id="circle15"
           cx="117.87038"
           cy="63.453072"
           r="0.80697155" /><circle
           style="display:inline;fill:none;fill-opacity:0.1;stroke:#5ef6ff;stroke-width:0.502724;stroke-linecap:square;stroke-dasharray:none;stroke-opacity:0.12"
           id="circle16"
           cx="120.61824"
           cy="62.961964"
           r="0.80697155" /><circle
           style="fill:none;fill-opacity:0.1;stroke:#5ef6ff;stroke-width:0.502724;stroke-linecap:square;stroke-dasharray:none;stroke-opacity:0.12"
           id="circle17"
           cx="113.02946"
           cy="71.404343"
           r="0.80697155" /></g></g><path
       style="display:inline;fill:none;fill-opacity:0.1;stroke:#5ef6ff;stroke-width:0.532767;stroke-dasharray:none;stroke-opacity:1"
       id="path3"
       width="39.158379"
       height="39.158379"
       x="84.931229"
       y="61.118729"
       d="M 84.931229,61.118729 H 124.08961 V 88.792051 L 112.60455,100.27711 H 84.931229 Z"
       transform="matrix(0.98657697,0,0,0.99990785,1.6674287,0.00742923)" /><g
       id="g8"
       style="display:inline"><path
         id="path7"
         style="display:inline;mix-blend-mode:normal;fill:#0e0e17;fill-opacity:0.878431;stroke:none;stroke-width:0.53035;stroke-linecap:square;stroke-linejoin:miter;stroke-miterlimit:4;stroke-dasharray:none;stroke-dashoffset:0;stroke-opacity:1;paint-order:markers fill stroke"
         d="m 80.433943,61.119342 h 3.967548 v 39.157148 h -3.967566 v -4.978819 l 0.708508,-0.902609 V 88.6571 L 80.43396,87.793832 Z" /><path
         id="path4"
         style="display:none;mix-blend-mode:normal;fill:#f0b537;fill-opacity:0.398597;stroke:#7c633a;stroke-width:0.53035;stroke-linecap:square;stroke-linejoin:miter;stroke-miterlimit:4;stroke-dasharray:none;stroke-dashoffset:0;stroke-opacity:1;paint-order:markers fill stroke"
         d="m 80.433943,61.119342 h 3.967548 v 39.157148 h -3.967566 v -4.978819 l 0.708508,-0.902609 V 88.6571 L 80.43396,87.793832 Z" /><path
         id="rect19"
         style="display:none;fill:none;fill-opacity:0.398597;stroke:#7c633a;stroke-width:0.371397;stroke-linecap:square;stroke-dasharray:none;paint-order:markers fill stroke"
         d="m 83.951803,81.041385 h -2.406728 v -0.686936 h 2.406728" /><path
         id="path2"
         style="display:inline;mix-blend-mode:normal;fill:#fb932e;fill-opacity:0.804923;stroke:#fb932e;stroke-width:0.53035;stroke-linecap:square;stroke-linejoin:miter;stroke-miterlimit:4;stroke-dasharray:none;stroke-dashoffset:0;stroke-opacity:1;paint-order:markers fill stroke"
         d="m 80.433943,61.119342 h 3.967548 v 39.157148 h -3.967566 v -4.978819 l 0.708508,-0.902609 V 88.6571 L 80.43396,87.793832 Z" /><path
         id="path6"
         style="display:inline;fill:none;fill-opacity:0.398597;stroke:#fb932e;stroke-width:0.371397;stroke-linecap:square;stroke-dasharray:none;stroke-opacity:1;paint-order:markers fill stroke"
         d="m 83.951803,81.041385 h -2.406728 v -0.686936 h 2.406728" /><g
         id="g60"
         transform="translate(-0.1403165)"><text
           xml:space="preserve"
           style="font-weight:600;font-size:1.85208px;line-height:0.75;font-family:Orbitron;-inkscape-font-specification:'Orbitron Semi-Bold';text-align:start;letter-spacing:0px;word-spacing:-0.0185208px;writing-mode:lr-tb;direction:ltr;text-anchor:start;display:inline;fill:#5ef6ff;fill-opacity:1;stroke:#5ef6ff;stroke-width:0.396875;stroke-linecap:square;stroke-dasharray:none;stroke-opacity:0.4"
           x="-69.775276"
           y="82.690582"
           id="text21"
           transform="rotate(-90)"><tspan
             style="font-style:normal;font-variant:normal;font-weight:bold;font-stretch:normal;font-size:1.85208px;line-height:0.75;font-family:Rajdhani;-inkscape-font-specification:'Rajdhani Bold';text-align:end;letter-spacing:0px;word-spacing:-0.0185208px;direction:ltr;text-anchor:end;stroke:none;stroke-width:0.396875"
             x="-69.775276"
             y="82.690582"
             id="tspan22">01 LINUX OS</tspan><tspan
             style="font-style:normal;font-variant:normal;font-weight:bold;font-stretch:normal;font-size:1.85208px;line-height:0.75;font-family:Rajdhani;-inkscape-font-specification:'Rajdhani Bold';text-align:end;letter-spacing:0px;word-spacing:-0.0185208px;direction:ltr;text-anchor:end;stroke:none;stroke-width:0.396875"
             x="-69.775276"
             y="84.222954"
             id="tspan56">0 05 0108</tspan></text><text
           xml:space="preserve"
           style="font-size:5.02708px;text-align:start;writing-mode:lr-tb;direction:ltr;text-anchor:start;display:inline;fill:#5ef6ff;fill-opacity:1;stroke:none;stroke-width:0.396875;stroke-linecap:square;stroke-linejoin:miter;stroke-dasharray:none;stroke-opacity:1;paint-order:normal"
           x="80.449745"
           y="68.982498"
           id="text19"><tspan
             id="tspan19"
             style="font-style:normal;font-variant:normal;font-weight:600;font-stretch:normal;font-size:5.02708px;font-family:Orbitron;-inkscape-font-specification:'Orbitron Semi-Bold';fill:#5ef6ff;fill-opacity:1;stroke:none;stroke-width:0.396875;stroke-opacity:1"
             x="80.449745"
             y="68.982498">0</tspan></text></g></g><g
       id="g9"
       style="display:inline"><path
         style="display:inline;fill:#5ef6ff;fill-opacity:0.85;stroke:#5ef6ff;stroke-width:0.63231;stroke-linecap:square;stroke-dasharray:none;stroke-opacity:1;paint-order:markers fill stroke"
         id="path5"
         width="12.435416"
         height="12.435416"
         x="111.78645"
         y="87.973953"
         transform="matrix(0.62765962,0,0,0.62765922,45.657511,36.791192)"
         d="m 123.52876,87.973953 h 0.69311 v 4.390489 l -8.04493,8.044928 h -4.39049 v -0.69311 z" /><path
         id="path8"
         style="display:inline;fill:none;fill-opacity:0.204559;stroke:#5ef6ff;stroke-width:1.18706;stroke-linecap:square;stroke-dasharray:none;stroke-opacity:1"
         d="m 80.76228,63.571818 v -2.124123 h 2.123375 m 38.751605,0 h 2.12334 v 2.124123 M 82.885655,99.948089 H 80.76228 v -2.124105" /></g></g></svg>
